<?xml version="1.0" encoding="UTF-8" standalone="no"?>
<!-- Created with Inkscape (http://www.inkscape.org/) -->

<svg
   width="210mm"
   height="297mm"
   viewBox="0 0 210 297"
   version="1.1"
   id="svg5"
   inkscape:version="1.1.2 (b8e25be833, 2022-02-05)"
   sodipodi:docname="expand.svg"
   inkscape:export-filename="C:\Users\Albireo\Downloads\expand.png"
   inkscape:export-xdpi="96"
   inkscape:export-ydpi="96"
   xmlns:inkscape="http://www.inkscape.org/namespaces/inkscape"
   xmlns:sodipodi="http://sodipodi.sourceforge.net/DTD/sodipodi-0.dtd"
   xmlns="http://www.w3.org/2000/svg"
   xmlns:svg="http://www.w3.org/2000/svg">
  <sodipodi:namedview
     id="namedview7"
     pagecolor="#505050"
     bordercolor="#ffffff"
     borderopacity="1"
     inkscape:pageshadow="0"
     inkscape:pageopacity="0"
     inkscape:pagecheckerboard="1"
     inkscape:document-units="mm"
     showgrid="false"
     inkscape:zoom="28.963094"
     inkscape:cx="61.630157"
     inkscape:cy="58.764441"
     inkscape:window-width="1920"
     inkscape:window-height="1017"
     inkscape:window-x="-8"
     inkscape:window-y="-8"
     inkscape:window-maximized="1"
     inkscape:current-layer="layer1" />
  <defs
     id="defs2" />
  <g
     inkscape:label="Calque 1"
     inkscape:groupmode="layer"
     id="layer1">
    <path
       d="m 16.358737,13.371417 v 0.71126 c 0,0.0782 -0.064,0.14225 -0.14225,0.14225 -0.0782,0 -0.14225,-0.064 -0.14225,-0.14225 v -0.3663 l -0.82506,0.82506 c -0.0284,0.0285 -0.064,0.0427 -0.0996,0.0427 -0.0356,0 -0.0711,-0.0142 -0.0996,-0.0427 -0.0569,-0.0569 -0.0569,-0.14581 0,-0.20271 l 0.8215,-0.82506 h -0.36629 c -0.0782,0 -0.14226,-0.064 -0.14226,-0.14225 0,-0.0782 0.064,-0.14225 0.14226,-0.14225 h 0.71125 c 0.0391,0 0.0747,0.0142 0.0996,0.0427 0.0285,0.0249 0.0427,0.0605 0.0427,0.0996 z m -0.14225,1.99151 c -0.0782,0 -0.14225,0.064 -0.14225,0.14226 v 0.36629 l -0.81083,-0.80372 c -0.0569,-0.0569 -0.14936,-0.0569 -0.20626,0 -0.0569,0.0569 -0.0569,0.14581 -0.004,0.20271 l 0.80372,0.80372 h -0.36629 c -0.0782,0 -0.14226,0.064 -0.14226,0.14225 0,0.0782 0.064,0.14225 0.14226,0.14225 h 0.71125 c 0.0391,0 0.0818,-0.0142 0.10669,-0.0427 0.0285,-0.0284 0.0498,-0.064 0.0498,-0.0996 v -0.71125 c 0,-0.0782 -0.064,-0.14226 -0.14225,-0.14226 z m -1.89194,-0.30228 -0.81082,0.81083 v -0.36629 c 0,-0.0782 -0.064,-0.14226 -0.14226,-0.14226 -0.0782,0 -0.14225,0.064 -0.14225,0.14226 v 0.71125 c 0,0.0391 0.0142,0.0747 0.0427,0.0996 0.0284,0.0285 0.064,0.0427 0.10313,0.0427 h 0.71125 c 0.0782,0 0.14226,-0.064 0.14226,-0.14225 0,-0.0782 -0.064,-0.14225 -0.14226,-0.14225 h -0.36985 l 0.81083,-0.81083 c 0.0569,-0.0569 0.0533,-0.14581 0,-0.20271 -0.0533,-0.0569 -0.1458,-0.0569 -0.20271,0 z m -0.60812,-1.53275 h 0.3663 c 0.0782,0 0.14225,-0.064 0.14225,-0.14225 0,-0.0782 -0.064,-0.14225 -0.14225,-0.14225 h -0.71126 c -0.0391,0 -0.0747,0.0142 -0.0996,0.0427 -0.0285,0.0249 -0.0427,0.0605 -0.0427,0.0996 v 0.71125 c 0,0.0782 0.064,0.14225 0.14225,0.14225 0.0782,0 0.14226,-0.064 0.14226,-0.14225 v -0.36985 l 0.82149,0.8215 c 0.0285,0.0284 0.064,0.0427 0.0996,0.0427 0.0356,0 0.0711,-0.0142 0.0996,-0.0427 0.0569,-0.0569 0.0569,-0.14581 0,-0.20271 z"
       id="path9"
       style="fill:#ffffff;stroke-width:0.0355627"
       inkscape:export-filename="C:\Users\Albireo\Downloads\path9.png"
       inkscape:export-xdpi="96"
       inkscape:export-ydpi="96" />
  </g>
</svg>
